<svg width="210" height="178" viewBox="0 0 210 178" fill="none" xmlns="http://www.w3.org/2000/svg">
<path d="M189.844 55.1454L206.125 38.8642L191.396 24.135L173.604 41.9163C162.667 35.3538 149.917 31.4996 136.25 31.4996C96.0521 31.4996 63.3334 64.2079 63.3334 104.416C63.3334 144.625 96.0521 177.333 136.25 177.333C176.448 177.333 209.167 144.625 209.167 104.416C209.158 86.1457 202.258 68.5507 189.844 55.1454ZM136.25 156.5C107.531 156.5 84.1667 133.135 84.1667 104.416C84.1667 75.6975 107.531 52.3329 136.25 52.3329C164.969 52.3329 188.333 75.6975 188.333 104.416C188.333 133.135 164.969 156.5 136.25 156.5Z" fill="#1AA090"/>
<path d="M125.833 73.1667H146.667V114.833H125.833V73.1667ZM115.417 0.25H157.083V21.0833H115.417V0.25ZM11.25 52.3333H52.9167V73.1667H11.25V52.3333ZM11.25 135.667H52.9167V156.5H11.25V135.667ZM0.833374 94H42.3959V114.833H0.833374V94Z" fill="#1AA090"/>
</svg>
